<svg width="144" height="144" viewBox="0 0 144 144" fill="none" xmlns="http://www.w3.org/2000/svg">
  <g clip-path="url(#clip0_42_184)">
    <rect width="144" height="144" fill="white" />
    <rect width="144" height="144" fill="#252525" />
    <path
      d="M34.0459 84L28.1816 72L26.7195 84H19L21.94 60H29.6909L35.4766 72L36.9544 60H44.7053L41.7653 84H34.0459Z"
      fill="white"
    />
    <path
      d="M46.4347 60H63.1786L62.4082 66.3085H53.3838L53.148 68.2057H62.1724L61.402 74.5296H52.3776L51.2142 84H43.4947L46.4347 60Z"
      fill="white"
    />
    <path
      d="M67.1248 84L69.2944 66.3085H64.1533L64.9237 60H82.9567L82.1864 66.3085H77.0296L74.8599 84H67.1248Z"
      fill="white"
    />
    <path
      d="M98.8673 60C99.9259 60 100.785 60.3702 101.446 61.1105C102.116 61.8509 102.389 62.7455 102.263 63.7943L101.713 68.3445C101.608 69.2082 101.247 69.9794 100.628 70.6581C100.01 71.3368 99.2813 71.7841 98.4428 72C99.2289 72.2262 99.8473 72.6735 100.298 73.3419C100.749 74.0103 100.922 74.7764 100.817 75.6401L100.219 80.5913C100.125 81.3419 100.115 82 100.188 82.5656C100.272 83.1208 100.571 83.599 101.084 84H94.2293C92.8668 83.3111 92.2851 82.1748 92.4842 80.5913L93.0188 76.1028C93.1026 75.4756 92.8249 75.162 92.1855 75.162H90.5661L89.4813 84H81.7619L84.7019 60H98.8673ZM91.6509 66.3085L91.3365 68.838H92.9559C93.5952 68.838 93.9516 68.5244 94.025 67.8972L94.1036 67.2648C94.1874 66.6272 93.9097 66.3085 93.2703 66.3085H91.6509Z"
      fill="white"
    />
    <path
      d="M118.048 71.9846L116.57 84H108.835L110.313 71.9846L103.411 60H112.294L115.139 65.7378L119.479 60H128L118.048 71.9846Z"
      fill="white"
    />
  </g>
  <defs>
    <clipPath id="clip0_42_184">
      <rect width="144" height="144" fill="white" />
    </clipPath>
  </defs>
</svg>
